<?xml version="1.0" encoding="utf-8"?>
<svg viewBox="107.661 206.383 222.643 193.99" xmlns="http://www.w3.org/2000/svg">
  <g transform="matrix(1, 0, 0, 1, 131.808777, 0)">
    <title>Flaske 3</title>
    <g transform="matrix(1, 0, 0, 1, -202.991974, 10.350847)">
      <path d="M 353.247 208.445 L 362.757 208.453 C 362.757 208.453 368.337 195.62 353.181 196.042" style="stroke-width: 3px; fill: rgba(255, 255, 255, 0); stroke: rgb(255, 255, 255);"/>
      <path d="M 344.501 196.04 L 354.011 196.032 C 354.011 196.032 359.591 208.865 344.435 208.443" style="stroke-width: 3px; fill: rgba(255, 255, 255, 0); stroke: rgb(255, 255, 255);" transform="matrix(-1, 0, 0, -1, 699.449493, 404.485184)"/>
    </g>
    <path d="M 183.812 395.471 L 180.854 395.471 C 180.854 395.471 180.86 343.811 180.854 327.549 C 180.86 314.894 176.318 303.84 171.064 291.039 C 164.118 274.12 156.246 254.945 157.2 226.959 C 157.228 226.143 157.947 225.507 158.727 225.532 C 159.543 225.56 160.184 226.244 160.155 227.06 C 159.223 254.41 166.967 273.275 173.8 289.919 C 178.952 302.465 183.818 314.315 183.812 327.554 C 183.817 343.813 183.812 395.473 183.812 395.473 L 183.812 395.471 Z" style="stroke: rgb(255, 255, 255); fill: rgb(255, 255, 255);"/>
    <path d="M 118.684 395.481 L 118.688 327.549 C 118.685 314.311 123.551 302.462 128.701 289.914 C 135.534 273.269 143.278 254.405 142.346 227.054 C 142.317 226.238 142.957 225.553 143.773 225.526 C 144.567 225.483 145.274 226.138 145.301 226.953 C 146.257 254.939 138.383 274.115 131.437 291.037 C 126.183 303.837 121.643 314.892 121.645 327.546 L 121.642 395.479 L 118.684 395.481 Z" style="stroke: rgb(255, 255, 255); fill: rgb(255, 255, 255);"/>
    <path d="M 179.324 400 L 123.216 400 C 122.399 400 121.737 399.338 121.737 398.521 C 121.737 397.704 122.399 397.043 123.216 397.043 L 179.324 397.043 C 180.141 397.043 180.801 397.704 180.801 398.521 C 180.799 399.338 180.139 400 179.322 400 L 179.324 400 Z" style="stroke: rgb(255, 255, 255); fill: rgb(255, 255, 255);"/>
    <path d="M 142.344 228.487 C 141.527 228.487 140.866 228.124 140.866 227.677 L 140.866 219.578 C 140.866 219.13 141.527 218.768 142.344 218.768 C 143.162 218.768 143.823 219.13 143.823 219.578 L 143.823 227.677 C 143.823 228.124 143.162 228.487 142.344 228.487 Z" style="stroke: rgb(255, 255, 255); fill: rgb(255, 255, 255);"/>
    <path d="M 160.084 228.487 C 159.267 228.487 158.605 228.124 158.605 227.677 L 158.605 219.578 C 158.605 219.13 159.267 218.768 160.084 218.768 C 160.901 218.768 161.562 219.13 161.562 219.578 L 161.562 227.677 C 161.562 228.124 160.901 228.487 160.084 228.487 Z" style="stroke: rgb(255, 255, 255); fill: rgb(255, 255, 255);"/>
    <path d="M 160.084 228.487 L 142.342 228.487 C 141.525 228.487 140.864 227.825 140.864 227.008 C 140.864 226.191 141.525 225.53 142.342 225.53 L 160.084 225.53 C 160.901 225.53 161.562 226.191 161.562 227.008 C 161.562 227.825 160.901 228.487 160.084 228.487 Z" style="stroke: rgb(255, 255, 255); fill: rgb(255, 255, 255);"/>
    <path d="M 123.216 400 C 120.72 400 118.688 397.967 118.688 395.472 C 118.688 394.655 119.349 393.993 120.167 393.993 C 120.984 393.993 121.645 394.655 121.645 395.472 C 121.645 396.338 122.35 397.043 123.216 397.043 C 124.033 397.043 124.695 397.704 124.695 398.521 C 124.695 399.338 124.033 400 123.216 400 Z" style="stroke: rgb(255, 255, 255); fill: rgb(255, 255, 255);"/>
    <path d="M 179.307 399.99 C 178.489 399.99 177.828 399.328 177.828 398.511 C 177.828 397.694 178.489 397.032 179.307 397.032 C 180.162 397.032 180.859 396.337 180.859 395.481 C 180.859 394.664 181.523 394.003 182.337 394.003 C 183.157 394.003 183.816 394.664 183.816 395.481 C 183.816 397.966 181.795 399.99 179.306 399.99 L 179.307 399.99 Z" style="stroke: rgb(255, 255, 255); fill: rgb(255, 255, 255);"/>
  </g>
  <g transform="matrix(1, 0, 0, 1, 65.682228, 0)">
    <title>Flaske 2</title>
    <g transform="matrix(1, 0, 0, 1, -202.991974, 10.350847)">
      <path d="M 353.247 208.445 L 362.757 208.453 C 362.757 208.453 368.337 195.62 353.181 196.042" style="stroke-width: 3px; fill: rgba(255, 255, 255, 0); stroke: rgb(255, 255, 255);"/>
      <path d="M 344.501 196.04 L 354.011 196.032 C 354.011 196.032 359.591 208.865 344.435 208.443" style="stroke-width: 3px; fill: rgba(255, 255, 255, 0); stroke: rgb(255, 255, 255);" transform="matrix(-1, 0, 0, -1, 699.449493, 404.485184)"/>
    </g>
    <path d="M 183.812 395.471 L 180.854 395.471 C 180.854 395.471 180.86 343.811 180.854 327.549 C 180.86 314.894 176.318 303.84 171.064 291.039 C 164.118 274.12 156.246 254.945 157.2 226.959 C 157.228 226.143 157.947 225.507 158.727 225.532 C 159.543 225.56 160.184 226.244 160.155 227.06 C 159.223 254.41 166.967 273.275 173.8 289.919 C 178.952 302.465 183.818 314.315 183.812 327.554 C 183.817 343.813 183.812 395.473 183.812 395.473 L 183.812 395.471 Z" style="stroke: rgb(255, 255, 255); fill: rgb(255, 255, 255);"/>
    <path d="M 118.684 395.481 L 118.688 327.549 C 118.685 314.311 123.551 302.462 128.701 289.914 C 135.534 273.269 143.278 254.405 142.346 227.054 C 142.317 226.238 142.957 225.553 143.773 225.526 C 144.567 225.483 145.274 226.138 145.301 226.953 C 146.257 254.939 138.383 274.115 131.437 291.037 C 126.183 303.837 121.643 314.892 121.645 327.546 L 121.642 395.479 L 118.684 395.481 Z" style="stroke: rgb(255, 255, 255); fill: rgb(255, 255, 255);"/>
    <path d="M 179.324 400 L 123.216 400 C 122.399 400 121.737 399.338 121.737 398.521 C 121.737 397.704 122.399 397.043 123.216 397.043 L 179.324 397.043 C 180.141 397.043 180.801 397.704 180.801 398.521 C 180.799 399.338 180.139 400 179.322 400 L 179.324 400 Z" style="stroke: rgb(255, 255, 255); fill: rgb(255, 255, 255);"/>
    <path d="M 142.344 228.487 C 141.527 228.487 140.866 228.124 140.866 227.677 L 140.866 219.578 C 140.866 219.13 141.527 218.768 142.344 218.768 C 143.162 218.768 143.823 219.13 143.823 219.578 L 143.823 227.677 C 143.823 228.124 143.162 228.487 142.344 228.487 Z" style="stroke: rgb(255, 255, 255); fill: rgb(255, 255, 255);"/>
    <path d="M 160.084 228.487 C 159.267 228.487 158.605 228.124 158.605 227.677 L 158.605 219.578 C 158.605 219.13 159.267 218.768 160.084 218.768 C 160.901 218.768 161.562 219.13 161.562 219.578 L 161.562 227.677 C 161.562 228.124 160.901 228.487 160.084 228.487 Z" style="stroke: rgb(255, 255, 255); fill: rgb(255, 255, 255);"/>
    <path d="M 160.084 228.487 L 142.342 228.487 C 141.525 228.487 140.864 227.825 140.864 227.008 C 140.864 226.191 141.525 225.53 142.342 225.53 L 160.084 225.53 C 160.901 225.53 161.562 226.191 161.562 227.008 C 161.562 227.825 160.901 228.487 160.084 228.487 Z" style="stroke: rgb(255, 255, 255); fill: rgb(255, 255, 255);"/>
    <path d="M 123.216 400 C 120.72 400 118.688 397.967 118.688 395.472 C 118.688 394.655 119.349 393.993 120.167 393.993 C 120.984 393.993 121.645 394.655 121.645 395.472 C 121.645 396.338 122.35 397.043 123.216 397.043 C 124.033 397.043 124.695 397.704 124.695 398.521 C 124.695 399.338 124.033 400 123.216 400 Z" style="stroke: rgb(255, 255, 255); fill: rgb(255, 255, 255);"/>
    <path d="M 179.307 399.99 C 178.489 399.99 177.828 399.328 177.828 398.511 C 177.828 397.694 178.489 397.032 179.307 397.032 C 180.162 397.032 180.859 396.337 180.859 395.481 C 180.859 394.664 181.523 394.003 182.337 394.003 C 183.157 394.003 183.816 394.664 183.816 395.481 C 183.816 397.966 181.795 399.99 179.306 399.99 L 179.307 399.99 Z" style="stroke: rgb(255, 255, 255); fill: rgb(255, 255, 255);"/>
  </g>
  <g transform="matrix(1, 0, 0, 1, -0.793478, 0)">
    <title>Flaske 1</title>
    <g transform="matrix(1, 0, 0, 1, -202.991974, 10.350847)">
      <path d="M 353.247 208.445 L 362.757 208.453 C 362.757 208.453 368.337 195.62 353.181 196.042" style="stroke-width: 3px; fill: rgba(255, 255, 255, 0); stroke: rgb(255, 255, 255);"/>
      <path d="M 344.501 196.04 L 354.011 196.032 C 354.011 196.032 359.591 208.865 344.435 208.443" style="stroke-width: 3px; fill: rgba(255, 255, 255, 0); stroke: rgb(255, 255, 255);" transform="matrix(-1, 0, 0, -1, 699.449493, 404.485184)"/>
    </g>
    <path d="M 183.812 395.471 L 180.854 395.471 C 180.854 395.471 180.86 343.811 180.854 327.549 C 180.86 314.894 176.318 303.84 171.064 291.039 C 164.118 274.12 156.246 254.945 157.2 226.959 C 157.228 226.143 157.947 225.507 158.727 225.532 C 159.543 225.56 160.184 226.244 160.155 227.06 C 159.223 254.41 166.967 273.275 173.8 289.919 C 178.952 302.465 183.818 314.315 183.812 327.554 C 183.817 343.813 183.812 395.473 183.812 395.473 L 183.812 395.471 Z" style="stroke: rgb(255, 255, 255); fill: rgb(255, 255, 255);"/>
    <path d="M 118.684 395.481 L 118.688 327.549 C 118.685 314.311 123.551 302.462 128.701 289.914 C 135.534 273.269 143.278 254.405 142.346 227.054 C 142.317 226.238 142.957 225.553 143.773 225.526 C 144.567 225.483 145.274 226.138 145.301 226.953 C 146.257 254.939 138.383 274.115 131.437 291.037 C 126.183 303.837 121.643 314.892 121.645 327.546 L 121.642 395.479 L 118.684 395.481 Z" style="stroke: rgb(255, 255, 255); fill: rgb(255, 255, 255);"/>
    <path d="M 179.324 400 L 123.216 400 C 122.399 400 121.737 399.338 121.737 398.521 C 121.737 397.704 122.399 397.043 123.216 397.043 L 179.324 397.043 C 180.141 397.043 180.801 397.704 180.801 398.521 C 180.799 399.338 180.139 400 179.322 400 L 179.324 400 Z" style="stroke: rgb(255, 255, 255); fill: rgb(255, 255, 255);"/>
    <path d="M 142.344 228.487 C 141.527 228.487 140.866 228.124 140.866 227.677 L 140.866 219.578 C 140.866 219.13 141.527 218.768 142.344 218.768 C 143.162 218.768 143.823 219.13 143.823 219.578 L 143.823 227.677 C 143.823 228.124 143.162 228.487 142.344 228.487 Z" style="stroke: rgb(255, 255, 255); fill: rgb(255, 255, 255);"/>
    <path d="M 160.084 228.487 C 159.267 228.487 158.605 228.124 158.605 227.677 L 158.605 219.578 C 158.605 219.13 159.267 218.768 160.084 218.768 C 160.901 218.768 161.562 219.13 161.562 219.578 L 161.562 227.677 C 161.562 228.124 160.901 228.487 160.084 228.487 Z" style="stroke: rgb(255, 255, 255); fill: rgb(255, 255, 255);"/>
    <path d="M 160.084 228.487 L 142.342 228.487 C 141.525 228.487 140.864 227.825 140.864 227.008 C 140.864 226.191 141.525 225.53 142.342 225.53 L 160.084 225.53 C 160.901 225.53 161.562 226.191 161.562 227.008 C 161.562 227.825 160.901 228.487 160.084 228.487 Z" style="stroke: rgb(255, 255, 255); fill: rgb(255, 255, 255);"/>
    <path d="M 123.216 400 C 120.72 400 118.688 397.967 118.688 395.472 C 118.688 394.655 119.349 393.993 120.167 393.993 C 120.984 393.993 121.645 394.655 121.645 395.472 C 121.645 396.338 122.35 397.043 123.216 397.043 C 124.033 397.043 124.695 397.704 124.695 398.521 C 124.695 399.338 124.033 400 123.216 400 Z" style="stroke: rgb(255, 255, 255); fill: rgb(255, 255, 255);"/>
    <path d="M 179.307 399.99 C 178.489 399.99 177.828 399.328 177.828 398.511 C 177.828 397.694 178.489 397.032 179.307 397.032 C 180.162 397.032 180.859 396.337 180.859 395.481 C 180.859 394.664 181.523 394.003 182.337 394.003 C 183.157 394.003 183.816 394.664 183.816 395.481 C 183.816 397.966 181.795 399.99 179.306 399.99 L 179.307 399.99 Z" style="stroke: rgb(255, 255, 255); fill: rgb(255, 255, 255);"/>
  </g>
  <g style="" transform="matrix(1, 0, 0, 0.849395, 0, 60.298153)">
    <title>Kasse</title>
    <rect x="107.661" y="288.566" width="222.202" height="26.061" style="stroke-width: 6px; paint-order: fill; fill-opacity: 1; stroke: rgb(255, 255, 255); fill: rgb(255, 255, 255);"/>
    <rect x="107.738" y="328.625" width="222.114" height="26.061" style="stroke-width: 6px; paint-order: fill; fill-opacity: 1; stroke: rgb(255, 255, 255); fill: rgb(255, 255, 255);"/>
    <rect x="107.976" y="374.312" width="222.328" height="26.061" style="stroke-width: 6px; paint-order: fill; fill-opacity: 1; stroke: rgb(255, 255, 255); fill: rgb(255, 255, 255);"/>
    <rect x="315.33" y="282.317" width="13.891" height="117.683" style="stroke: rgb(255, 255, 255); fill: rgb(255, 255, 255);"/>
    <rect x="107.951" y="282.317" width="13.891" height="117.683" style="stroke: rgb(255, 255, 255); fill: rgb(255, 255, 255);"/>
  </g>
</svg>